<svg id="圆环和花" xmlns="http://www.w3.org/2000/svg" viewBox="0 0 175.14 175.14"><defs><style>.cls-1,.cls-2{fill:none;stroke-miterlimit:10;}.cls-1{stroke:#224952;}.cls-2{stroke:#6e766d;}.cls-3{fill:#6e766d;}.cls-4{font-size:14.15px;fill:#826d5b;font-family:Slideqiuhong-Regular, Slideqiuhong;}</style></defs><title>圆环和花icon</title><circle class="cls-1" cx="92.06" cy="92.85" r="87.05" transform="translate(-43.18 87.02) rotate(-45)"/><circle class="cls-1" cx="91.74" cy="93.94" r="63.19" transform="translate(-29.42 148.91) rotate(-72.99)"/><circle class="cls-1" cx="91.77" cy="93.56" r="52.44" transform="matrix(0.29, -0.96, 0.96, 0.29, -29.03, 148.68)"/><path class="cls-1" d="M145,135.12l2.91,2.27c.76-1,1.5-2,2.21-3l3.06,2.14c.75-1.07,1.46-2.16,2.16-3.28l-3.16-2c.66-1,1.29-2.11,1.89-3.2l3.26,1.8,2.92,1.62,3.3,1.83c.69-1.25,1.36-2.51,2-3.81s1.22-2.58,1.78-3.9,1.08-2.65,1.57-4,1-2.69,1.37-4.06l-3.62-1.11c-.4,1.31-.83,2.61-1.3,3.88l-3.13-1.14c-.45,1.23-.93,2.45-1.44,3.65l3.07,1.3c-.54,1.26-1.1,2.5-1.7,3.73l-3-1.47-3.35-1.64-3.31-1.61c-.51,1.07-1.06,2.11-1.63,3.14s-1.17,2-1.79,3-1.28,2-2,2.94S145.72,134.2,145,135.12Z" transform="translate(-4.49 -5.27)"/><path class="cls-1" d="M132.35,147.47l2.25,3c1-.75,2-1.52,2.93-2.32l2.39,2.85c1-.84,2-1.71,3-2.61l-2.54-2.72,0,0c.91-.84,1.79-1.71,2.65-2.6l2.69,2.59,2.4,2.32,2.7,2.61q1.48-1.54,2.91-3.16c.93-1.08,1.85-2.18,2.73-3.31s1.73-2.27,2.55-3.45,1.62-2.36,2.38-3.57l-3.2-2c-.72,1.17-1.48,2.3-2.26,3.42l-2.73-1.91c-.76,1.07-1.53,2.12-2.34,3.15l2.63,2.05c-.84,1.08-1.71,2.13-2.61,3.16l-2.51-2.19-2.82-2.45-2.79-2.42c-.77.89-1.57,1.76-2.39,2.6s-1.66,1.66-2.52,2.46l0,0c-.87.81-1.75,1.59-2.66,2.35S133.3,146.76,132.35,147.47Z" transform="translate(-4.49 -5.27)"/><path class="cls-1" d="M117.11,156.13l1.38,3.42c1.15-.46,2.29-1,3.42-1.48l1.57,3.38c1.18-.55,2.35-1.14,3.51-1.76l-1.75-3.28q1.64-.87,3.24-1.83l1.92,3.19,1.72,2.86,1.95,3.24c1.22-.74,2.43-1.5,3.62-2.31s2.35-1.63,3.49-2.49,2.26-1.75,3.37-2.67,2.16-1.86,3.21-2.84l-2.58-2.77c-1,.94-2,1.84-3.07,2.71L140,151c-1,.84-2,1.66-3.07,2.44l2,2.66c-1.09.83-2.2,1.62-3.32,2.38l-1.87-2.77-2.08-3.09-2.06-3c-1,.67-2,1.3-3,1.9s-2,1.18-3.08,1.73-2.1,1.08-3.16,1.57S118.2,155.69,117.11,156.13Z" transform="translate(-4.49 -5.27)"/><path class="cls-1" d="M100,160.5l.46,3.69c1.24-.14,2.47-.33,3.7-.54l.64,3.67c1.29-.22,2.58-.49,3.86-.78l-.84-3.63h0c1.21-.28,2.41-.59,3.61-.93l1,3.58.91,3.21,1,3.61c1.37-.39,2.74-.81,4.1-1.28s2.69-1,4-1.5,2.64-1.1,3.94-1.7,2.58-1.24,3.85-1.91l-1.77-3.34c-1.21.65-2.43,1.25-3.67,1.83l-1.41-3c-1.19.55-2.38,1.07-3.6,1.56l1.25,3.09c-1.26.51-2.54,1-3.83,1.43l-1.09-3.15L115,160.85l-1.21-3.49q-1.67.57-3.36,1c-1.14.33-2.28.62-3.42.88h0c-1.15.27-2.31.5-3.48.7S101.16,160.37,100,160.5Z" transform="translate(-4.49 -5.27)"/><path class="cls-1" d="M82.45,160.38,81.93,164c1.23.17,2.46.31,3.71.42l-.33,3.71c1.3.12,2.6.19,3.92.24l.12-3.72c1.24,0,2.48.05,3.73,0l.06,3.73.06,3.34.07,3.77c1.42,0,2.85-.08,4.29-.19s2.84-.23,4.27-.4,2.83-.39,4.25-.64,2.8-.52,4.2-.85l-.85-3.68c-1.34.31-2.68.58-4,.81l-.58-3.29c-1.29.23-2.59.42-3.88.58l.4,3.31c-1.36.17-2.71.3-4.07.4l-.23-3.34-.26-3.71-.25-3.67c-1.19.08-2.36.13-3.54.15s-2.36,0-3.53,0-2.35-.11-3.52-.22S83.61,160.55,82.45,160.38Z" transform="translate(-4.49 -5.27)"/><path class="cls-1" d="M65.43,155.61,64,159c1.15.49,2.3.95,3.47,1.38l-1.27,3.5c1.23.45,2.48.87,3.74,1.25L71,161.6h0c1.19.37,2.38.7,3.59,1l-.9,3.62-.81,3.23L72,173.11c1.38.35,2.78.66,4.18.94s2.82.51,4.24.71,2.83.37,4.26.49,2.85.22,4.28.27l.14-3.78c-1.37,0-2.73-.13-4.09-.24l.29-3.33c-1.31-.11-2.6-.26-3.89-.45L81,171c-1.35-.19-2.7-.42-4-.68l.64-3.27.71-3.67.7-3.62c-1.15-.23-2.3-.48-3.44-.77s-2.27-.61-3.4-1h0c-1.13-.35-2.25-.72-3.36-1.13S66.52,156.08,65.43,155.61Z" transform="translate(-4.49 -5.27)"/><path class="cls-1" d="M50.31,146.73,48,149.64q1.47,1.14,3,2.22l-2.14,3q1.61,1.13,3.27,2.16l2-3.15q1.57,1,3.21,1.89l-1.81,3.25L53.92,162l-1.83,3.3q1.86,1,3.81,2c1.28.63,2.58,1.22,3.9,1.78s2.64,1.09,4,1.58,2.69,1,4.07,1.37L69,168.38c-1.32-.4-2.61-.84-3.88-1.31l1.13-3.13c-1.23-.45-2.45-.93-3.64-1.44l-1.31,3.07c-1.26-.54-2.5-1.1-3.72-1.69l1.47-3,1.63-3.34,1.61-3.31c-1.06-.52-2.11-1.06-3.13-1.63s-2.05-1.18-3-1.8-2-1.28-3-2S51.23,147.46,50.31,146.73Z" transform="translate(-4.49 -5.27)"/><path class="cls-1" d="M38,134.09l-3,2.24c.74,1,1.52,2,2.32,2.93l-2.86,2.39c.84,1,1.72,2,2.61,3l2.72-2.55s0,0,0,0c.85.91,1.71,1.8,2.61,2.66l-2.59,2.68-2.32,2.4-2.61,2.7c1,1,2.08,2,3.16,2.91s2.18,1.85,3.31,2.73,2.27,1.74,3.44,2.56,2.36,1.61,3.58,2.38l2-3.21c-1.16-.72-2.3-1.48-3.42-2.25l1.92-2.74c-1.07-.75-2.12-1.53-3.15-2.33l-2.05,2.62c-1.08-.84-2.13-1.7-3.16-2.6l2.19-2.52,2.44-2.82,2.43-2.78c-.89-.77-1.76-1.57-2.6-2.39s-1.67-1.66-2.47-2.53l0,0c-.8-.87-1.59-1.76-2.34-2.67S38.66,135,38,134.09Z" transform="translate(-4.49 -5.27)"/><path class="cls-1" d="M29.3,118.84l-3.43,1.38c.47,1.15,1,2.29,1.49,3.42L24,125.22c.55,1.18,1.13,2.34,1.75,3.5L29,127q.87,1.63,1.83,3.24l-3.19,1.91-2.86,1.73-3.24,1.94c.73,1.22,1.5,2.43,2.31,3.62s1.62,2.35,2.49,3.5,1.74,2.26,2.67,3.36,1.85,2.17,2.83,3.22l2.77-2.58c-.94-1-1.84-2-2.71-3.07l2.56-2.15c-.85-1-1.66-2-2.44-3.07l-2.67,2c-.82-1.1-1.61-2.2-2.37-3.33l2.77-1.87,3.09-2.08,3-2.06c-.67-1-1.3-2-1.9-3s-1.19-2-1.74-3.07-1.07-2.1-1.57-3.17S29.73,119.93,29.3,118.84Z" transform="translate(-4.49 -5.27)"/><path class="cls-1" d="M24.92,101.72l-3.69.45c.15,1.24.33,2.47.54,3.7l-3.67.65c.23,1.29.49,2.58.79,3.86l3.63-.84a.06.06,0,0,0,0,0q.41,1.82.93,3.6l-3.59,1-3.21.92-3.61,1c.39,1.38.82,2.74,1.28,4.1s1,2.69,1.5,4,1.1,2.64,1.71,3.94,1.24,2.58,1.91,3.84l3.34-1.77c-.65-1.21-1.26-2.43-1.84-3.66l3-1.41c-.55-1.19-1.08-2.39-1.56-3.6l-3.09,1.25c-.52-1.27-1-2.55-1.44-3.84L21.05,118l3.53-1.22,3.49-1.2c-.39-1.11-.74-2.24-1.06-3.37s-.61-2.27-.87-3.42c0,0,0,0,0,0-.26-1.16-.49-2.31-.7-3.48S25.06,102.89,24.92,101.72Z" transform="translate(-4.49 -5.27)"/><path class="cls-1" d="M25.05,84.18l-3.66-.51c-.17,1.22-.31,2.46-.42,3.7L17.25,87c-.11,1.3-.19,2.61-.23,3.92l3.72.13c0,1.23-.06,2.47,0,3.72L17,94.87l-3.34.07L9.86,95c0,1.42.09,2.86.19,4.29s.24,2.85.41,4.27.38,2.83.63,4.25.53,2.8.85,4.2l3.69-.85c-.31-1.33-.58-2.67-.81-4l3.28-.58c-.23-1.29-.42-2.58-.58-3.88l-3.31.41c-.16-1.36-.29-2.72-.39-4.07l3.33-.23,3.72-.26,3.67-.26c-.09-1.18-.14-2.36-.16-3.53s0-2.36,0-3.53.12-2.36.22-3.53S24.88,85.34,25.05,84.18Z" transform="translate(-4.49 -5.27)"/><path class="cls-1" d="M29.82,67.16l-3.43-1.45C25.9,66.86,25.45,68,25,69.19l-3.5-1.28c-.46,1.23-.87,2.48-1.26,3.74l3.57,1.09a0,0,0,0,0,0,0c-.37,1.19-.7,2.38-1,3.59l-3.62-.9L16,74.65l-3.64-.91c-.35,1.38-.66,2.78-.94,4.19s-.52,2.81-.71,4.23-.37,2.83-.49,4.26-.22,2.86-.27,4.29l3.77.13c0-1.37.13-2.73.25-4.09l3.32.29c.12-1.3.27-2.6.45-3.89l-3.3-.47c.19-1.35.41-2.69.68-4l3.27.63L22,80l3.63.7c.22-1.15.48-2.31.77-3.45s.6-2.27.95-3.39c0,0,0,0,0,0,.34-1.13.72-2.25,1.13-3.36S29.35,68.25,29.82,67.16Z" transform="translate(-4.49 -5.27)"/><path class="cls-1" d="M38.7,52l-2.91-2.27c-.77,1-1.51,2-2.22,3l-3.06-2.14c-.74,1.07-1.46,2.16-2.16,3.28l3.16,2c-.65,1-1.28,2.11-1.89,3.2l-3.26-1.8-2.92-1.62-3.3-1.83c-.69,1.25-1.36,2.51-2,3.81s-1.22,2.58-1.79,3.9-1.08,2.65-1.57,4-1,2.69-1.37,4.06l3.62,1.11c.4-1.31.83-2.61,1.3-3.88L21.49,68c.44-1.23.92-2.45,1.44-3.65L19.86,63c.53-1.26,1.09-2.5,1.69-3.73l3,1.47,3.35,1.64L31.21,64c.51-1.07,1.06-2.11,1.63-3.14s1.17-2,1.79-3,1.28-2,2-2.94S38,53,38.7,52Z" transform="translate(-4.49 -5.27)"/><path class="cls-1" d="M51.34,39.69l-2.24-3c-1,.75-2,1.52-2.93,2.32l-2.4-2.85c-1,.84-2,1.71-3,2.61l2.54,2.72,0,0c-.91.84-1.79,1.71-2.65,2.6L38,41.56l-2.4-2.32-2.7-2.61Q31.4,38.17,30,39.79c-.93,1.08-1.85,2.18-2.73,3.31s-1.73,2.27-2.55,3.45-1.62,2.36-2.38,3.57l3.2,2c.72-1.17,1.48-2.3,2.26-3.42l2.73,1.91c.76-1.07,1.53-2.12,2.34-3.15l-2.63-2c.84-1.08,1.71-2.13,2.61-3.16l2.51,2.19,2.82,2.45L41,49.32c.77-.89,1.57-1.76,2.39-2.6s1.66-1.66,2.52-2.46l0,0c.87-.81,1.75-1.59,2.66-2.35S50.39,40.4,51.34,39.69Z" transform="translate(-4.49 -5.27)"/><path class="cls-1" d="M66.59,31,65.2,27.61c-1.15.46-2.28,1-3.42,1.48l-1.57-3.38c-1.18.55-2.35,1.14-3.51,1.76l1.75,3.28q-1.64.87-3.24,1.83l-1.92-3.19-1.72-2.86-2-3.24c-1.21.74-2.43,1.5-3.62,2.31s-2.34,1.63-3.49,2.49-2.26,1.75-3.36,2.67S37,32.62,35.93,33.6l2.58,2.77c1-.94,2-1.84,3.07-2.71l2.14,2.55c1-.84,2-1.66,3.07-2.44l-2-2.66c1.09-.83,2.2-1.62,3.33-2.38L50,31.5l2.08,3.09,2.06,3c1-.67,2-1.3,3-1.9s2-1.18,3.08-1.73,2.1-1.08,3.17-1.57S65.49,31.47,66.59,31Z" transform="translate(-4.49 -5.27)"/><path class="cls-1" d="M83.71,26.66,83.25,23c-1.23.14-2.47.33-3.7.54l-.64-3.67c-1.29.22-2.58.49-3.86.78l.84,3.63h0q-1.81.42-3.6.93l-1-3.58L70.3,18.4l-1-3.61c-1.37.39-2.73.81-4.09,1.28s-2.7,1-4,1.5-2.64,1.1-3.94,1.7-2.58,1.24-3.85,1.91l1.77,3.34c1.21-.65,2.44-1.25,3.67-1.83l1.41,3q1.78-.83,3.6-1.56l-1.25-3.09c1.27-.51,2.54-1,3.83-1.43l1.09,3.15,1.21,3.53L69.9,29.8c1.11-.38,2.23-.73,3.37-1.05s2.27-.62,3.41-.88h0c1.15-.27,2.31-.5,3.48-.7S82.54,26.79,83.71,26.66Z" transform="translate(-4.49 -5.27)"/><path class="cls-1" d="M101.24,26.78l.52-3.66c-1.23-.17-2.46-.31-3.7-.42L98.38,19c-1.3-.12-2.6-.19-3.91-.24l-.13,3.72q-1.86-.06-3.72,0l-.07-3.73-.06-3.34-.06-3.77c-1.43,0-2.86.08-4.3.19s-2.84.23-4.27.4-2.83.39-4.24.64-2.81.52-4.21.85l.85,3.68c1.34-.31,2.68-.58,4-.81l.58,3.29c1.3-.23,2.59-.42,3.88-.58L82.33,16c1.36-.17,2.71-.3,4.07-.4l.23,3.34.26,3.71.26,3.67c1.18-.08,2.36-.13,3.53-.15s2.36,0,3.53,0,2.35.11,3.53.22S100.08,26.61,101.24,26.78Z" transform="translate(-4.49 -5.27)"/><path class="cls-1" d="M118.26,31.55l1.45-3.42c-1.14-.49-2.3-.95-3.47-1.38l1.27-3.5c-1.23-.45-2.48-.87-3.73-1.25l-1.09,3.56h0c-1.18-.37-2.38-.7-3.58-1l.9-3.62.81-3.23.91-3.65c-1.39-.35-2.78-.66-4.19-.94s-2.81-.51-4.23-.71S100.43,12,99,11.91s-2.85-.22-4.28-.27l-.14,3.78c1.37,0,2.74.13,4.09.24L98.38,19q2,.17,3.9.45l.46-3.31c1.36.19,2.7.42,4,.68l-.64,3.27-.71,3.67-.7,3.62c1.15.23,2.3.48,3.44.77s2.28.61,3.4,1h0c1.13.35,2.25.72,3.36,1.13S117.18,31.09,118.26,31.55Z" transform="translate(-4.49 -5.27)"/><path class="cls-1" d="M133.38,40.43l2.28-2.91c-1-.76-2-1.5-3-2.22l2.14-3c-1.07-.75-2.15-1.47-3.27-2.16l-2,3.15q-1.58-1-3.21-1.89l1.81-3.25,1.62-2.93,1.83-3.3q-1.87-1-3.81-2c-1.28-.63-2.59-1.22-3.91-1.78s-2.64-1.09-4-1.58-2.69-1-4.07-1.37l-1.1,3.62c1.31.4,2.6.84,3.88,1.31l-1.14,3.13c1.23.45,2.45.93,3.65,1.44l1.3-3.07c1.26.54,2.5,1.1,3.72,1.69l-1.47,3L123,29.63l-1.61,3.31c1.07.52,2.11,1.06,3.14,1.63s2,1.18,3,1.8,2,1.28,3,2S132.46,39.7,133.38,40.43Z" transform="translate(-4.49 -5.27)"/><path class="cls-1" d="M145.74,53.07l3-2.24c-.74-1-1.52-2-2.32-2.93l2.86-2.39c-.84-1-1.71-2-2.61-3l-2.72,2.55,0,0c-.84-.91-1.71-1.8-2.61-2.66l2.59-2.68,2.32-2.4,2.61-2.7c-1-1-2.08-2-3.16-2.91s-2.17-1.85-3.3-2.73-2.27-1.74-3.45-2.56-2.36-1.61-3.58-2.38l-2,3.21c1.16.72,2.3,1.48,3.42,2.25l-1.92,2.74c1.08.75,2.13,1.53,3.15,2.33L140,32c1.07.84,2.13,1.7,3.15,2.6L141,37.08l-2.44,2.82-2.43,2.78c.89.77,1.76,1.57,2.6,2.39s1.67,1.66,2.47,2.53c0,0,0,0,0,0,.81.87,1.59,1.76,2.35,2.67S145,52.12,145.74,53.07Z" transform="translate(-4.49 -5.27)"/><path class="cls-1" d="M154.39,68.32l3.43-1.38c-.47-1.15-1-2.29-1.49-3.42l3.38-1.58c-.55-1.18-1.13-2.34-1.75-3.5l-3.29,1.74q-.87-1.63-1.83-3.24L156,55l2.86-1.73,3.23-1.94c-.73-1.22-1.5-2.43-2.31-3.62s-1.62-2.35-2.48-3.5-1.75-2.26-2.68-3.36-1.85-2.17-2.83-3.22l-2.77,2.58c.94,1,1.84,2,2.71,3.07l-2.56,2.15c.85,1,1.66,2,2.44,3.07l2.67-2c.82,1.1,1.61,2.2,2.38,3.33l-2.78,1.87-3.09,2.08-3.05,2.06c.67,1,1.3,2,1.91,3s1.18,2,1.73,3.07S152.5,64,153,65.08,154,67.23,154.39,68.32Z" transform="translate(-4.49 -5.27)"/><path class="cls-1" d="M158.77,85.44l3.69-.45c-.15-1.24-.33-2.47-.54-3.7l3.67-.65c-.23-1.29-.49-2.58-.79-3.86l-3.63.84v0c-.28-1.21-.59-2.41-.94-3.6l3.59-1L167,72l3.61-1c-.39-1.38-.82-2.74-1.28-4.1s-1-2.69-1.5-4-1.1-2.64-1.71-3.94-1.24-2.58-1.91-3.84l-3.33,1.77q1,1.82,1.83,3.66l-3,1.41q.84,1.79,1.56,3.6l3.1-1.25c.51,1.27,1,2.55,1.43,3.84l-3.16,1.08-3.52,1.22-3.5,1.2c.39,1.11.74,2.24,1.06,3.37s.61,2.27.87,3.42c0,0,0,0,0,0,.26,1.16.5,2.31.7,3.48S158.63,84.27,158.77,85.44Z" transform="translate(-4.49 -5.27)"/><path class="cls-1" d="M158.64,103l3.66.51c.17-1.22.31-2.46.43-3.7l3.71.33c.11-1.3.19-2.61.23-3.92L163,96.07q.06-1.84,0-3.72l3.72-.06,3.34-.06,3.78-.07c0-1.42-.09-2.86-.19-4.29s-.24-2.85-.41-4.27-.38-2.83-.63-4.25-.53-2.8-.85-4.2l-3.69.85c.31,1.33.58,2.67.81,4l-3.28.58c.23,1.29.42,2.58.58,3.88l3.31-.41c.16,1.36.3,2.72.39,4.07l-3.33.23-3.72.26-3.67.26c.09,1.18.14,2.36.16,3.53s0,2.36,0,3.53-.12,2.36-.22,3.53S158.81,101.82,158.64,103Z" transform="translate(-4.49 -5.27)"/><path class="cls-1" d="M153.87,120l3.43,1.45c.49-1.15.95-2.31,1.37-3.48l3.51,1.28c.45-1.23.86-2.48,1.25-3.74l-3.56-1.09a0,0,0,0,1,0,0c.36-1.19.7-2.38,1-3.59l3.62.9,3.24.81,3.64.91c.35-1.38.67-2.78.94-4.19s.52-2.81.71-4.23.37-2.83.5-4.26.21-2.86.27-4.29L170,96.32c0,1.37-.13,2.73-.25,4.09l-3.32-.29c-.12,1.3-.26,2.6-.45,3.89l3.3.47c-.19,1.35-.41,2.69-.68,4l-3.27-.63-3.66-.72-3.63-.7c-.22,1.15-.48,2.31-.77,3.45s-.6,2.27-.95,3.39c0,0,0,0,0,0q-.52,1.69-1.14,3.36C154.78,117.81,154.34,118.91,153.87,120Z" transform="translate(-4.49 -5.27)"/><path class="cls-2" d="M135.33,71.83a21.27,21.27,0,0,0-21.62-5.6c-.25.07-.32,0-.32-.24A21.34,21.34,0,0,0,96.67,45.52a19.87,19.87,0,0,0-3.08-.44c-.08,0-.16,0-.22-.06H90.89l-1.62.2a20.81,20.81,0,0,0-11.4,5.24A21,21,0,0,0,71,63.1a16.61,16.61,0,0,0-.24,2.9c0,.3-.09.3-.33.23a20.54,20.54,0,0,0-6.41-1,21.36,21.36,0,0,0-20.89,18,16,16,0,0,0-.24,2.59c0,.1,0,.21-.06.29V87A7.92,7.92,0,0,1,43,88.48a21.16,21.16,0,0,0,4.73,11.6,20.74,20.74,0,0,0,9.58,6.66c.31.11.27.2.12.41a20.38,20.38,0,0,0-3.68,9.45,20.9,20.9,0,0,0,5.35,17.08,20.26,20.26,0,0,0,13.63,6.87,20.9,20.9,0,0,0,19.1-8.27l.07-.08c.14-.28.25-.26.43,0a21.31,21.31,0,0,0,31.57,2.74,20.5,20.5,0,0,0,6.53-12.48,20.92,20.92,0,0,0-3.63-15.29c-.17-.24-.17-.32.13-.42A21,21,0,0,0,139,96.23a20.34,20.34,0,0,0,2.3-9.33A21,21,0,0,0,135.33,71.83Z" transform="translate(-4.49 -5.27)"/><path class="cls-3" d="M85.37,103.26,87,101a8,8,0,0,1-2.67-4l-5.54,1.8a1.09,1.09,0,0,1-2.12.41,1.09,1.09,0,0,1,2-.93l5.58-1.81a8.13,8.13,0,0,1-.17-1.63,8,8,0,0,1,.33-2.26l-5-1.61A20.28,20.28,0,1,0,91.2,128.28a21.84,21.84,0,0,1-3.56-3.82h0a21.4,21.4,0,0,1-3-19.22L80.44,111a1.09,1.09,0,1,1-.44-.32l5.34-7.34m7-20.23v3.85a7.86,7.86,0,0,1,4.57,1.72l3.31-4.55a1.09,1.09,0,1,1,.44.32L97.29,89a7.87,7.87,0,0,1,2.1,3.19l4.92-1.6A20.28,20.28,0,1,0,73.1,67.12a21.79,21.79,0,0,1,5.12,1A21.4,21.4,0,0,1,91.76,81.24h0V75a1.09,1.09,0,1,1,.54,0v8m-.54-1.73" transform="translate(-4.49 -5.27)"/><path class="cls-3" d="M81.2,91,84.55,92a7.94,7.94,0,0,1,3-3.75l-3.35-4.61a1.09,1.09,0,1,1,.44-.32L88,88a7.87,7.87,0,0,1,3.79-1.07v-5.5a20.28,20.28,0,1,0-31.83,22.84A21.49,21.49,0,0,1,79.25,90.89h0l-6.22-2a1.11,1.11,0,1,1,.16-.52l7.92,2.57m16.75,12.65-1.57-2.16a7.9,7.9,0,0,1-4.35,1.3h-.42v5.84a1.09,1.09,0,1,1-.55,0v-5.89a7.7,7.7,0,0,1-3.51-1.34l-2.76,3.8a20.28,20.28,0,1,0,39,.85,21.65,21.65,0,0,1-4.73,2.2h0A21.39,21.39,0,0,1,99.56,105l4.19,5.77a1.09,1.09,0,1,1-.44.32l-5.42-7.47M119,108.16" transform="translate(-4.49 -5.27)"/><path class="cls-3" d="M102.76,91.68l-3.2,1a8.24,8.24,0,0,1,.28,2.1,7.92,7.92,0,0,1-.55,2.88l5.43,1.77a1.09,1.09,0,0,1,2,.92,1.08,1.08,0,0,1-1.37.69,1.07,1.07,0,0,1-.75-1.1L99.08,98.2a7.86,7.86,0,0,1-2.35,2.89l2.74,3.77a20.28,20.28,0,0,0,31.17-22.71h0a20.29,20.29,0,0,0-18.14-14,21,21,0,0,1,.64,5.17,21.4,21.4,0,0,1-8.66,17.21l6.27-2a1.09,1.09,0,0,1,2.12-.4,1.1,1.1,0,0,1-.7,1.37,1.08,1.08,0,0,1-1.25-.45l-8.09,2.63m27.81-9.51" transform="translate(-4.49 -5.27)"/><text class="cls-4" transform="translate(80.78 93.16) scale(0.95 1)">宁</text></svg>